<svg width="20" height="12" viewBox="0 0 20 12" fill="none" xmlns="http://www.w3.org/2000/svg">
<path d="M14.9984 11.9998C14.7151 11.9998 14.4778 11.9038 14.2864 11.7118C14.0944 11.5205 13.9984 11.2831 13.9984 10.9998C13.9984 10.7165 14.0944 10.4791 14.2864 10.2878C14.4778 10.0958 14.7151 9.9998 14.9984 9.9998H16.5984L11.3984 4.8498L8.09844 8.1498C8.0151 8.23314 7.9111 8.2998 7.78644 8.3498C7.6611 8.39981 7.53177 8.4248 7.39844 8.4248C7.2651 8.4248 7.1401 8.39981 7.02344 8.3498C6.90677 8.2998 6.79844 8.23314 6.69844 8.1498L0.673437 2.0748C0.490104 1.89147 0.398438 1.66647 0.398438 1.3998C0.398438 1.13314 0.498437 0.899804 0.698437 0.699804C0.881771 0.516471 1.1151 0.424805 1.39844 0.424805C1.68177 0.424805 1.9151 0.516471 2.09844 0.699804L7.39844 5.9998L10.6984 2.6998C10.7984 2.5998 10.9068 2.52881 11.0234 2.4868C11.1401 2.44547 11.2651 2.4248 11.3984 2.4248C11.5318 2.4248 11.6568 2.44547 11.7734 2.4868C11.8901 2.52881 11.9984 2.5998 12.0984 2.6998L17.9984 8.5998V6.9998C17.9984 6.71647 18.0944 6.4788 18.2864 6.2868C18.4778 6.09547 18.7151 5.9998 18.9984 5.9998C19.2818 5.9998 19.5191 6.09547 19.7104 6.2868C19.9024 6.4788 19.9984 6.71647 19.9984 6.9998V10.9998C19.9984 11.2831 19.9024 11.5205 19.7104 11.7118C19.5191 11.9038 19.2818 11.9998 18.9984 11.9998H14.9984Z" fill="url(#paint0_linear_665_905)"/>
<defs>
<linearGradient id="paint0_linear_665_905" x1="-0.44639" y1="0.424805" x2="20.8214" y2="29.1225" gradientUnits="userSpaceOnUse">
<stop offset="0.111209" stop-color="#FF5106"/>
<stop offset="0.857168" stop-color="#A40894"/>
</linearGradient>
</defs>
</svg>
