<svg width="29" height="29" viewBox="0 0 29 29" fill="none" xmlns="http://www.w3.org/2000/svg">
<circle cx="14" cy="14" r="14" transform="matrix(-1 0 0 1 28.3672 0.136719)" fill="url(#paint0_linear_3167_2246)"/>
<path d="M11.068 19.4365C10.8846 19.2532 10.793 19.0199 10.793 18.7365C10.793 18.4532 10.8846 18.2199 11.068 18.0365L14.968 14.1365L11.068 10.2365C10.8846 10.0532 10.793 9.81986 10.793 9.53652C10.793 9.25319 10.8846 9.01986 11.068 8.83652C11.2513 8.65319 11.4846 8.56152 11.768 8.56152C12.0513 8.56152 12.2846 8.65319 12.468 8.83652L17.068 13.4365C17.168 13.5365 17.239 13.6449 17.281 13.7615C17.3223 13.8782 17.343 14.0032 17.343 14.1365C17.343 14.2699 17.3223 14.3949 17.281 14.5115C17.239 14.6282 17.168 14.7365 17.068 14.8365L12.468 19.4365C12.2846 19.6199 12.0513 19.7115 11.768 19.7115C11.4846 19.7115 11.2513 19.6199 11.068 19.4365Z" fill="white"/>
<defs>
<linearGradient id="paint0_linear_3167_2246" x1="14" y1="14" x2="-8.82726" y2="13.1733" gradientUnits="userSpaceOnUse">
<stop stop-color="#FF5106"/>
<stop offset="1" stop-color="#CD2A52"/>
</linearGradient>
</defs>
</svg>
