<svg width="28" height="28" viewBox="0 0 28 28" fill="none" xmlns="http://www.w3.org/2000/svg">
<circle cx="14" cy="14" r="14" fill="url(#paint0_linear_3167_2245)"/>
<path d="M17.2992 19.2998C17.4826 19.1165 17.5742 18.8831 17.5742 18.5998C17.5742 18.3165 17.4826 18.0831 17.2992 17.8998L13.3992 13.9998L17.2992 10.0998C17.4826 9.91647 17.5742 9.68314 17.5742 9.3998C17.5742 9.11647 17.4826 8.88314 17.2992 8.6998C17.1159 8.51647 16.8826 8.4248 16.5992 8.4248C16.3159 8.4248 16.0826 8.51647 15.8992 8.6998L11.2992 13.2998C11.1992 13.3998 11.1282 13.5081 11.0862 13.6248C11.0449 13.7415 11.0242 13.8665 11.0242 13.9998C11.0242 14.1331 11.0449 14.2581 11.0862 14.3748C11.1282 14.4915 11.1992 14.5998 11.2992 14.6998L15.8992 19.2998C16.0826 19.4831 16.3159 19.5748 16.5992 19.5748C16.8826 19.5748 17.1159 19.4831 17.2992 19.2998Z" fill="white"/>
<defs>
<linearGradient id="paint0_linear_3167_2245" x1="-1.2069" y1="2.99744e-07" x2="51.2097" y2="41.7695" gradientUnits="userSpaceOnUse">
<stop offset="0.111209" stop-color="#FF5106"/>
<stop offset="0.857168" stop-color="#A40894"/>
</linearGradient>
</defs>
</svg>
