<svg width="18" height="20" viewBox="0 0 18 20" fill="none" xmlns="http://www.w3.org/2000/svg">
<path fill-rule="evenodd" clip-rule="evenodd" d="M10.204 0.243806C8.347 -0.174194 7 1.42181 7 2.99981V16.9998C7 18.5778 8.347 20.1738 10.204 19.7558C14.666 18.7518 18 14.7658 18 9.99981C18 5.23381 14.666 1.24781 10.204 0.243806ZM4.707 6.29281C4.51947 6.10534 4.26516 6.00002 4 6.00002C3.73484 6.00002 3.48053 6.10534 3.293 6.29281L0.292999 9.29281C0.105528 9.48033 0.000213623 9.73464 0.000213623 9.99981C0.000213623 10.265 0.105528 10.5193 0.292999 10.7068L3.293 13.7068C3.4816 13.889 3.7342 13.9898 3.9964 13.9875C4.2586 13.9852 4.50941 13.88 4.69482 13.6946C4.88023 13.5092 4.9854 13.2584 4.98767 12.9962C4.98995 12.734 4.88916 12.4814 4.707 12.2928L3.414 10.9998H12C12.2652 10.9998 12.5196 10.8944 12.7071 10.7069C12.8946 10.5194 13 10.265 13 9.99981C13 9.73459 12.8946 9.48024 12.7071 9.2927C12.5196 9.10516 12.2652 8.99981 12 8.99981H3.414L4.707 7.70681C4.89447 7.51928 4.99979 7.26497 4.99979 6.99981C4.99979 6.73464 4.89447 6.48033 4.707 6.29281Z" fill="white"/>
</svg>
