<svg width="40" height="40" viewBox="0 0 40 40" fill="none" xmlns="http://www.w3.org/2000/svg">
<path fill-rule="evenodd" clip-rule="evenodd" d="M21.204 10.2438C19.347 9.82581 18 11.4218 18 12.9998V26.9998C18 28.5778 19.347 30.1738 21.204 29.7558C25.666 28.7518 29 24.7658 29 19.9998C29 15.2338 25.666 11.2478 21.204 10.2438ZM15.707 16.2928C15.5195 16.1053 15.2652 16 15 16C14.7348 16 14.4805 16.1053 14.293 16.2928L11.293 19.2928C11.1055 19.4803 11.0002 19.7346 11.0002 19.9998C11.0002 20.265 11.1055 20.5193 11.293 20.7068L14.293 23.7068C14.4816 23.889 14.7342 23.9898 14.9964 23.9875C15.2586 23.9852 15.5094 23.88 15.6948 23.6946C15.8802 23.5092 15.9854 23.2584 15.9877 22.9962C15.99 22.734 15.8892 22.4814 15.707 22.2928L14.414 20.9998H23C23.2652 20.9998 23.5196 20.8944 23.7071 20.7069C23.8946 20.5194 24 20.265 24 19.9998C24 19.7346 23.8946 19.4802 23.7071 19.2927C23.5196 19.1052 23.2652 18.9998 23 18.9998H14.414L15.707 17.7068C15.8945 17.5193 15.9998 17.265 15.9998 16.9998C15.9998 16.7346 15.8945 16.4803 15.707 16.2928Z" fill="url(#paint0_linear_3282_2227)"/>
<rect x="0.5" y="0.5" width="39" height="39" rx="7.5" stroke="#FFB46D"/>
<defs>
<linearGradient id="paint0_linear_3282_2227" x1="29.7759" y1="10.1763" x2="-6.16255" y2="36.4136" gradientUnits="userSpaceOnUse">
<stop offset="0.111209" stop-color="#FF5106"/>
<stop offset="0.857168" stop-color="#A40894"/>
</linearGradient>
</defs>
</svg>
