<svg width="20" height="20" viewBox="0 0 20 20" fill="none" xmlns="http://www.w3.org/2000/svg">
<path d="M10 16.5C10.4167 16.5 10.7707 16.354 11.062 16.062C11.354 15.7707 11.5 15.4167 11.5 15H8.5C8.5 15.4167 8.646 15.7707 8.938 16.062C9.22933 16.354 9.58333 16.5 10 16.5ZM6.025 14H14.025C14.3083 14 14.5417 13.904 14.725 13.712C14.9083 13.5207 15 13.2833 15 13C15 12.7167 14.904 12.479 14.712 12.287C14.5207 12.0957 14.2833 12 14 12V9.4C14 8.38333 13.7377 7.454 13.213 6.612C12.6877 5.77067 11.95 5.23333 11 5V4.5C11 4.21667 10.9043 3.979 10.713 3.787C10.521 3.59567 10.2833 3.5 10 3.5C9.71667 3.5 9.47933 3.59567 9.288 3.787C9.096 3.979 9 4.21667 9 4.5V5C8.05 5.23333 7.31267 5.77067 6.788 6.612C6.26267 7.454 6 8.38333 6 9.4V12C5.71667 12 5.48333 12.0957 5.3 12.287C5.11667 12.479 5.025 12.7167 5.025 13C5.025 13.2833 5.12067 13.5207 5.312 13.712C5.504 13.904 5.74167 14 6.025 14ZM10 20C8.61667 20 7.31667 19.7373 6.1 19.212C4.88333 18.6873 3.825 17.975 2.925 17.075C2.025 16.175 1.31267 15.1167 0.788 13.9C0.262667 12.6833 0 11.3833 0 10C0 8.61667 0.262667 7.31667 0.788 6.1C1.31267 4.88333 2.025 3.825 2.925 2.925C3.825 2.025 4.88333 1.31233 6.1 0.787C7.31667 0.262333 8.61667 0 10 0C11.3833 0 12.6833 0.262333 13.9 0.787C15.1167 1.31233 16.175 2.025 17.075 2.925C17.975 3.825 18.6873 4.88333 19.212 6.1C19.7373 7.31667 20 8.61667 20 10C20 11.3833 19.7373 12.6833 19.212 13.9C18.6873 15.1167 17.975 16.175 17.075 17.075C16.175 17.975 15.1167 18.6873 13.9 19.212C12.6833 19.7373 11.3833 20 10 20Z" fill="white"/>
</svg>
