<svg width="37" height="42" viewBox="0 0 37 42" fill="none" xmlns="http://www.w3.org/2000/svg">
<path d="M14.7034 25.3047L3.74131 32.2505C2.75986 32.8722 2.768 34.3552 3.75623 34.965L14.7875 41.7749C15.8083 42.4051 17.1004 41.6369 17.0943 40.4046L17.0251 26.6482C17.019 25.4153 15.7174 24.6618 14.7034 25.3047Z" fill="url(#paint0_linear_665_853)"/>
<path d="M19.9695 15.3501L19.9159 1.59371C19.9111 0.360734 21.2046 -0.405386 22.224 0.22624L33.2478 7.05161C34.2354 7.66282 34.2415 9.14576 33.2594 9.76612L22.2891 16.6978C21.2744 17.3386 19.9742 16.5837 19.9695 15.3501Z" fill="url(#paint1_linear_665_853)"/>
<path d="M13.315 19.6468L2.31288 12.7806C1.29481 12.1455 -0.000677998 12.9074 2.66223e-07 14.1396L0.0101743 27.896C0.0108526 29.129 1.30837 29.8887 2.32577 29.2515L13.3177 22.3613C14.3019 21.7452 14.3005 20.2622 13.315 19.6468Z" fill="url(#paint2_linear_665_853)"/>
<path d="M23.6863 19.6179L34.6864 12.7426C35.7038 12.1067 37.0007 12.8679 37 14.1009L36.9939 27.8573C36.9932 29.0902 35.6964 29.85 34.6797 29.2135L23.6857 22.3325C22.7008 21.7163 22.7015 20.2341 23.6863 19.6179Z" fill="url(#paint3_linear_665_853)"/>
<path d="M16.9308 15.3881L16.7904 1.63244C16.7775 0.398758 15.4719 -0.347645 14.4613 0.301585L3.53511 7.31355C2.55706 7.94096 2.57334 9.4239 3.56496 10.0281L14.6315 16.7711C15.6557 17.3949 16.943 16.6204 16.9308 15.3881Z" fill="url(#paint4_linear_665_853)"/>
<path d="M22.3746 25.2202L33.433 31.9787C34.4239 32.5842 34.4382 34.0672 33.4595 34.6932L22.5252 41.6904C21.5139 42.3375 20.2089 41.5897 20.198 40.356L20.0732 26.6003C20.0631 25.3681 21.3518 24.5949 22.3746 25.2202Z" fill="url(#paint5_linear_665_853)"/>
<defs>
<linearGradient id="paint0_linear_665_853" x1="-1.59483" y1="4.49616e-07" x2="74.2675" y2="53.2561" gradientUnits="userSpaceOnUse">
<stop offset="0.111209" stop-color="#FF5106"/>
<stop offset="0.857168" stop-color="#A40894"/>
</linearGradient>
<linearGradient id="paint1_linear_665_853" x1="-1.59483" y1="4.49616e-07" x2="74.2675" y2="53.2561" gradientUnits="userSpaceOnUse">
<stop offset="0.111209" stop-color="#FF5106"/>
<stop offset="0.857168" stop-color="#A40894"/>
</linearGradient>
<linearGradient id="paint2_linear_665_853" x1="-1.59483" y1="4.49616e-07" x2="74.2675" y2="53.2561" gradientUnits="userSpaceOnUse">
<stop offset="0.111209" stop-color="#FF5106"/>
<stop offset="0.857168" stop-color="#A40894"/>
</linearGradient>
<linearGradient id="paint3_linear_665_853" x1="-1.59483" y1="4.49616e-07" x2="74.2675" y2="53.2561" gradientUnits="userSpaceOnUse">
<stop offset="0.111209" stop-color="#FF5106"/>
<stop offset="0.857168" stop-color="#A40894"/>
</linearGradient>
<linearGradient id="paint4_linear_665_853" x1="-1.59483" y1="4.49616e-07" x2="74.2675" y2="53.2561" gradientUnits="userSpaceOnUse">
<stop offset="0.111209" stop-color="#FF5106"/>
<stop offset="0.857168" stop-color="#A40894"/>
</linearGradient>
<linearGradient id="paint5_linear_665_853" x1="-1.59483" y1="4.49616e-07" x2="74.2675" y2="53.2561" gradientUnits="userSpaceOnUse">
<stop offset="0.111209" stop-color="#FF5106"/>
<stop offset="0.857168" stop-color="#A40894"/>
</linearGradient>
</defs>
</svg>
