<svg width="20" height="20" viewBox="0 0 20 20" fill="none" xmlns="http://www.w3.org/2000/svg">
<path d="M11.8744 20H8.12436C7.87436 20 7.65769 19.9167 7.47436 19.75C7.29103 19.5833 7.18269 19.375 7.14936 19.125L6.84936 16.8C6.63269 16.7167 6.42869 16.6167 6.23736 16.5C6.04536 16.3833 5.85769 16.2583 5.67436 16.125L3.49936 17.025C3.26603 17.1083 3.03269 17.1167 2.79936 17.05C2.56603 16.9833 2.38269 16.8417 2.24936 16.625L0.399361 13.4C0.266027 13.1833 0.224361 12.95 0.274361 12.7C0.324361 12.45 0.449361 12.25 0.649361 12.1L2.52436 10.675C2.50769 10.5583 2.49936 10.4457 2.49936 10.337V9.662C2.49936 9.554 2.50769 9.44167 2.52436 9.325L0.649361 7.9C0.449361 7.75 0.324361 7.55 0.274361 7.3C0.224361 7.05 0.266027 6.81667 0.399361 6.6L2.24936 3.375C2.36603 3.14167 2.54503 2.99567 2.78636 2.937C3.02836 2.879 3.26603 2.89167 3.49936 2.975L5.67436 3.875C5.85769 3.74167 6.04936 3.61667 6.24936 3.5C6.44936 3.38333 6.64936 3.28333 6.84936 3.2L7.14936 0.875C7.18269 0.625 7.29103 0.416667 7.47436 0.25C7.65769 0.0833333 7.87436 0 8.12436 0H11.8744C12.1244 0 12.341 0.0833333 12.5244 0.25C12.7077 0.416667 12.816 0.625 12.8494 0.875L13.1494 3.2C13.366 3.28333 13.5704 3.38333 13.7624 3.5C13.9537 3.61667 14.141 3.74167 14.3244 3.875L16.4994 2.975C16.7327 2.89167 16.966 2.88333 17.1994 2.95C17.4327 3.01667 17.616 3.15833 17.7494 3.375L19.5994 6.6C19.7327 6.81667 19.7744 7.05 19.7244 7.3C19.6744 7.55 19.5494 7.75 19.3494 7.9L17.4744 9.325C17.491 9.44167 17.4994 9.554 17.4994 9.662V10.337C17.4994 10.4457 17.4827 10.5583 17.4494 10.675L19.3244 12.1C19.5244 12.25 19.6494 12.45 19.6994 12.7C19.7494 12.95 19.7077 13.1833 19.5744 13.4L17.7244 16.6C17.591 16.8167 17.4037 16.9627 17.1624 17.038C16.9204 17.1127 16.6827 17.1083 16.4494 17.025L14.3244 16.125C14.141 16.2583 13.9494 16.3833 13.7494 16.5C13.5494 16.6167 13.3494 16.7167 13.1494 16.8L12.8494 19.125C12.816 19.375 12.7077 19.5833 12.5244 19.75C12.341 19.9167 12.1244 20 11.8744 20ZM10.0494 13.5C11.016 13.5 11.841 13.1583 12.5244 12.475C13.2077 11.7917 13.5494 10.9667 13.5494 10C13.5494 9.03333 13.2077 8.20833 12.5244 7.525C11.841 6.84167 11.016 6.5 10.0494 6.5C9.06603 6.5 8.23669 6.84167 7.56136 7.525C6.88669 8.20833 6.54936 9.03333 6.54936 10C6.54936 10.9667 6.88669 11.7917 7.56136 12.475C8.23669 13.1583 9.06603 13.5 10.0494 13.5Z" fill="white"/>
</svg>
