<svg width="40" height="40" viewBox="0 0 40 40" fill="none" xmlns="http://www.w3.org/2000/svg">
<path d="M21.8744 30H18.1244C17.8744 30 17.6577 29.9167 17.4744 29.75C17.291 29.5833 17.1827 29.375 17.1494 29.125L16.8494 26.8C16.6327 26.7167 16.4287 26.6167 16.2374 26.5C16.0454 26.3833 15.8577 26.2583 15.6744 26.125L13.4994 27.025C13.266 27.1083 13.0327 27.1167 12.7994 27.05C12.566 26.9833 12.3827 26.8417 12.2494 26.625L10.3994 23.4C10.266 23.1833 10.2244 22.95 10.2744 22.7C10.3244 22.45 10.4494 22.25 10.6494 22.1L12.5244 20.675C12.5077 20.5583 12.4994 20.4457 12.4994 20.337V19.662C12.4994 19.554 12.5077 19.4417 12.5244 19.325L10.6494 17.9C10.4494 17.75 10.3244 17.55 10.2744 17.3C10.2244 17.05 10.266 16.8167 10.3994 16.6L12.2494 13.375C12.366 13.1417 12.545 12.9957 12.7864 12.937C13.0284 12.879 13.266 12.8917 13.4994 12.975L15.6744 13.875C15.8577 13.7417 16.0494 13.6167 16.2494 13.5C16.4494 13.3833 16.6494 13.2833 16.8494 13.2L17.1494 10.875C17.1827 10.625 17.291 10.4167 17.4744 10.25C17.6577 10.0833 17.8744 10 18.1244 10H21.8744C22.1244 10 22.341 10.0833 22.5244 10.25C22.7077 10.4167 22.816 10.625 22.8494 10.875L23.1494 13.2C23.366 13.2833 23.5704 13.3833 23.7624 13.5C23.9537 13.6167 24.141 13.7417 24.3244 13.875L26.4994 12.975C26.7327 12.8917 26.966 12.8833 27.1994 12.95C27.4327 13.0167 27.616 13.1583 27.7494 13.375L29.5994 16.6C29.7327 16.8167 29.7744 17.05 29.7244 17.3C29.6744 17.55 29.5494 17.75 29.3494 17.9L27.4744 19.325C27.491 19.4417 27.4994 19.554 27.4994 19.662V20.337C27.4994 20.4457 27.4827 20.5583 27.4494 20.675L29.3244 22.1C29.5244 22.25 29.6494 22.45 29.6994 22.7C29.7494 22.95 29.7077 23.1833 29.5744 23.4L27.7244 26.6C27.591 26.8167 27.4037 26.9627 27.1624 27.038C26.9204 27.1127 26.6827 27.1083 26.4494 27.025L24.3244 26.125C24.141 26.2583 23.9494 26.3833 23.7494 26.5C23.5494 26.6167 23.3494 26.7167 23.1494 26.8L22.8494 29.125C22.816 29.375 22.7077 29.5833 22.5244 29.75C22.341 29.9167 22.1244 30 21.8744 30ZM20.0494 23.5C21.016 23.5 21.841 23.1583 22.5244 22.475C23.2077 21.7917 23.5494 20.9667 23.5494 20C23.5494 19.0333 23.2077 18.2083 22.5244 17.525C21.841 16.8417 21.016 16.5 20.0494 16.5C19.066 16.5 18.2367 16.8417 17.5614 17.525C16.8867 18.2083 16.5494 19.0333 16.5494 20C16.5494 20.9667 16.8867 21.7917 17.5614 22.475C18.2367 23.1583 19.066 23.5 20.0494 23.5Z" fill="url(#paint0_linear_3282_2226)"/>
<rect x="0.5" y="0.5" width="39" height="39" rx="7.5" stroke="#FFB46D"/>
<defs>
<linearGradient id="paint0_linear_3282_2226" x1="9.41378" y1="10" x2="46.6276" y2="38.9" gradientUnits="userSpaceOnUse">
<stop offset="0.111209" stop-color="#FF5106"/>
<stop offset="0.857168" stop-color="#A40894"/>
</linearGradient>
</defs>
</svg>
