<svg width="20" height="12" viewBox="0 0 20 12" fill="none" xmlns="http://www.w3.org/2000/svg">
<path d="M14.9984 0.000195503C14.7151 0.000195503 14.4778 0.0961952 14.2864 0.288196C14.0944 0.479529 13.9984 0.716862 13.9984 1.0002C13.9984 1.28353 14.0944 1.52086 14.2864 1.7122C14.4778 1.9042 14.7151 2.0002 14.9984 2.0002H16.5984L11.3984 7.1502L8.09844 3.8502C8.0151 3.76686 7.9111 3.7002 7.78644 3.6502C7.6611 3.60019 7.53177 3.5752 7.39844 3.5752C7.2651 3.5752 7.1401 3.60019 7.02344 3.6502C6.90677 3.7002 6.79844 3.76686 6.69844 3.8502L0.673437 9.9252C0.490104 10.1085 0.398438 10.3335 0.398438 10.6002C0.398438 10.8669 0.498437 11.1002 0.698437 11.3002C0.881771 11.4835 1.1151 11.5752 1.39844 11.5752C1.68177 11.5752 1.9151 11.4835 2.09844 11.3002L7.39844 6.0002L10.6984 9.3002C10.7984 9.4002 10.9068 9.47119 11.0234 9.5132C11.1401 9.55453 11.2651 9.5752 11.3984 9.5752C11.5318 9.5752 11.6568 9.55453 11.7734 9.5132C11.8901 9.47119 11.9984 9.4002 12.0984 9.3002L17.9984 3.4002V5.0002C17.9984 5.28353 18.0944 5.5212 18.2864 5.7132C18.4778 5.90453 18.7151 6.0002 18.9984 6.0002C19.2818 6.0002 19.5191 5.90453 19.7104 5.7132C19.9024 5.5212 19.9984 5.28353 19.9984 5.0002V1.0002C19.9984 0.716862 19.9024 0.479529 19.7104 0.288196C19.5191 0.0961952 19.2818 0.000195503 18.9984 0.000195503H14.9984Z" fill="url(#paint0_linear_665_917)"/>
<defs>
<linearGradient id="paint0_linear_665_917" x1="-0.44639" y1="11.5752" x2="20.8214" y2="-17.1225" gradientUnits="userSpaceOnUse">
<stop offset="0.111209" stop-color="#FF5106"/>
<stop offset="0.857168" stop-color="#A40894"/>
</linearGradient>
</defs>
</svg>
